<?xml version="1.0" encoding="UTF-8"?>
<svg width="10" height="10" viewBox="0 0 24 24" fill="none">
    <path d="M5.10938 24H18.8203C19.3828 24 19.9141 23.875 20.4141 23.625C20.9297 23.3906 21.375 23.0625 21.75 22.6406C22.125 22.2031 22.375 21.7188 22.5 21.1875C22.625 20.6406 22.6484 20.1016 22.5703 19.5703L20.25 7.35938C20.2188 7.17188 20.1328 7.02344 19.9922 6.91406C19.8516 6.80469 19.6875 6.75 19.5 6.75H16.5V4.5C16.5 3.26562 16.0547 2.21094 15.1641 1.33594C14.2891 0.445312 13.2344 0 12 0C10.7656 0 9.70312 0.445312 8.8125 1.33594C7.9375 2.21094 7.5 3.26562 7.5 4.5V6.75H4.5C4.3125 6.75 4.14844 6.80469 4.00781 6.91406C3.86719 7.02344 3.78125 7.17188 3.75 7.35938L1.42969 19.5703C1.32031 20.1016 1.33594 20.6406 1.47656 21.1875C1.61719 21.7188 1.875 22.2031 2.25 22.6406C2.59375 23.0625 3.01562 23.3906 3.51562 23.625C4.01562 23.875 4.54688 24 5.10938 24ZM9 4.5C9 3.67188 9.28906 2.96875 9.86719 2.39062C10.4609 1.79688 11.1719 1.5 12 1.5C12.8281 1.5 13.5312 1.79688 14.1094 2.39062C14.7031 2.96875 15 3.67188 15 4.5V6.75H9V4.5ZM2.92969 19.8047L5.10938 8.25H18.8203L21 19.8047C21.0781 20.1328 21.0703 20.4609 20.9766 20.7891C20.8828 21.1172 20.7422 21.4141 20.5547 21.6797C20.3203 21.9453 20.0547 22.1484 19.7578 22.2891C19.4766 22.4297 19.1641 22.5 18.8203 22.5H5.10938C4.76562 22.5 4.44531 22.4297 4.14844 22.2891C3.85156 22.1484 3.59375 21.9453 3.375 21.6797C3.1875 21.4141 3.04688 21.1172 2.95312 20.7891C2.85938 20.4609 2.85156 20.1328 2.92969 19.8047Z"
          fill="currentColor"/>
</svg>
