<?xml version="1.0" encoding="UTF-8"?>
<svg width="10" height="10" viewBox="0 0 24 24" fill="none">
    <path d="M23.8828 4.875C23.8672 4.84375 23.8438 4.8125 23.8125 4.78125C23.7969 4.75 23.7734 4.72656 23.7422 4.71094C23.7422 4.69531 23.7422 4.6875 23.7422 4.6875L18.4922 0.1875C18.4141 0.125 18.3359 0.078125 18.2578 0.046875C18.1797 0.015625 18.0938 0 18 0H6C5.90625 0 5.82031 0.015625 5.74219 0.046875C5.66406 0.078125 5.58594 0.125 5.50781 0.1875L0.257812 4.6875C0.257812 4.6875 0.25 4.69531 0.234375 4.71094C0.21875 4.72656 0.195312 4.75 0.164062 4.78125C0.148438 4.8125 0.132812 4.84375 0.117188 4.875C0.101562 4.89062 0.0859375 4.90625 0.0703125 4.92188C0.0703125 4.92188 0.0703125 4.92969 0.0703125 4.94531C0.0546875 4.99219 0.0390625 5.04688 0.0234375 5.10938C0.0078125 5.15625 0 5.20312 0 5.25V23.25C0 23.4531 0.0703125 23.625 0.210938 23.7656C0.367188 23.9219 0.546875 24 0.75 24H23.25C23.4531 24 23.625 23.9219 23.7656 23.7656C23.9219 23.625 24 23.4531 24 23.25V5.25C24 5.20312 23.9922 5.15625 23.9766 5.10938C23.9609 5.04688 23.9453 4.99219 23.9297 4.94531C23.9297 4.92969 23.9219 4.92188 23.9062 4.92188C23.9062 4.90625 23.8984 4.89062 23.8828 4.875ZM21.2344 4.5H15.4688L13.9688 1.5H17.7188L21.2344 4.5ZM9.75 6H14.25V12H9.75V6ZM12.2812 1.5L13.7812 4.5H10.2188L11.7188 1.5H12.2812ZM6.28125 1.5H10.0312L8.53125 4.5H2.76562L6.28125 1.5ZM1.5 22.5V6H8.25V12.75C8.25 12.9531 8.32031 13.1328 8.46094 13.2891C8.61719 13.4297 8.79688 13.5 9 13.5H15C15.2031 13.5 15.375 13.4297 15.5156 13.2891C15.6719 13.1328 15.75 12.9531 15.75 12.75V6H22.5V22.5H1.5Z"
          fill="currentColor"/>
</svg>
