<?xml version="1.0" encoding="UTF-8"?>
<svg width="10" height="10" viewBox="0 0 24 24" fill="none">
    <path d="M12 0C10.3333 0 8.76667 0.316667 7.3 0.95C5.85 1.56667 4.58333 2.41667 3.5 3.5C2.41667 4.58333 1.55833 5.85833 0.925 7.325C0.308333 8.775 0 10.3333 0 12C0 13.6667 0.308333 15.225 0.925 16.675C1.55833 18.125 2.41667 19.4 3.5 20.5C4.58333 21.5833 5.85 22.4417 7.3 23.075C8.76667 23.6917 10.3333 24 12 24C13.6667 24 15.225 23.6917 16.675 23.075C18.125 22.4417 19.3917 21.5833 20.475 20.5C21.575 19.4167 22.4333 18.15 23.05 16.7C23.6833 15.2333 24 13.6667 24 12C24 10.3333 23.6833 8.775 23.05 7.325C22.4333 5.875 21.5833 4.60833 20.5 3.525C19.4167 2.425 18.1417 1.56667 16.675 0.95C15.225 0.316667 13.6667 0 12 0ZM12 22.4C10.5667 22.4 9.21667 22.1333 7.95 21.6C6.68333 21.05 5.575 20.3083 4.625 19.375C3.69167 18.425 2.95 17.3167 2.4 16.05C1.86667 14.7833 1.6 13.4333 1.6 12C1.6 10.5667 1.86667 9.21667 2.4 7.95C2.95 6.68333 3.69167 5.58333 4.625 4.65C5.575 3.7 6.68333 2.95833 7.95 2.425C9.21667 1.875 10.5667 1.6 12 1.6C13.4333 1.6 14.7833 1.875 16.05 2.425C17.3167 2.95833 18.4167 3.7 19.35 4.65C20.3 5.58333 21.0417 6.68333 21.575 7.95C22.125 9.21667 22.4 10.5667 22.4 12C22.4 13.4333 22.125 14.7833 21.575 16.05C21.0417 17.3167 20.3 18.425 19.35 19.375C18.4167 20.3083 17.3167 21.05 16.05 21.6C14.7833 22.1333 13.4333 22.4 12 22.4ZM11.2 8.4C11.2 7.63333 10.925 6.975 10.375 6.425C9.825 5.875 9.16667 5.6 8.4 5.6C7.63333 5.6 6.975 5.875 6.425 6.425C5.875 6.975 5.6 7.63333 5.6 8.4C5.6 9.16667 5.875 9.825 6.425 10.375C6.975 10.925 7.63333 11.2 8.4 11.2C9.16667 11.2 9.825 10.925 10.375 10.375C10.925 9.825 11.2 9.16667 11.2 8.4ZM7.2 8.4C7.2 8.08333 7.31667 7.80833 7.55 7.575C7.8 7.325 8.08333 7.2 8.4 7.2C8.71667 7.2 8.99167 7.325 9.225 7.575C9.475 7.80833 9.6 8.08333 9.6 8.4C9.6 8.71667 9.475 9 9.225 9.25C8.99167 9.48333 8.71667 9.6 8.4 9.6C8.08333 9.6 7.8 9.48333 7.55 9.25C7.31667 9 7.2 8.71667 7.2 8.4ZM15.6 12.8C14.8333 12.8 14.175 13.075 13.625 13.625C13.075 14.175 12.8 14.8333 12.8 15.6C12.8 16.3667 13.075 17.025 13.625 17.575C14.175 18.125 14.8333 18.4 15.6 18.4C16.3667 18.4 17.025 18.125 17.575 17.575C18.125 17.025 18.4 16.3667 18.4 15.6C18.4 14.8333 18.125 14.175 17.575 13.625C17.025 13.075 16.3667 12.8 15.6 12.8ZM15.6 16.8C15.2833 16.8 15 16.6833 14.75 16.45C14.5167 16.2 14.4 15.9167 14.4 15.6C14.4 15.2833 14.5167 15.0083 14.75 14.775C15 14.525 15.2833 14.4 15.6 14.4C15.9167 14.4 16.1917 14.525 16.425 14.775C16.675 15.0083 16.8 15.2833 16.8 15.6C16.8 15.9167 16.675 16.2 16.425 16.45C16.1917 16.6833 15.9167 16.8 15.6 16.8ZM16.55 7.45C16.4 7.28333 16.2167 7.2 16 7.2C15.7833 7.2 15.6 7.28333 15.45 7.45L7.45 15.45C7.28333 15.6 7.2 15.7833 7.2 16C7.2 16.2167 7.28333 16.4 7.45 16.55C7.51667 16.6333 7.6 16.7 7.7 16.75C7.81667 16.7833 7.91667 16.8 8 16.8C8.08333 16.8 8.175 16.7833 8.275 16.75C8.39167 16.7 8.48333 16.6333 8.55 16.55L16.55 8.55C16.7167 8.4 16.8 8.21667 16.8 8C16.8 7.78333 16.7167 7.6 16.55 7.45Z"
          fill="currentColor"/>
</svg>
