<?xml version="1.0" encoding="UTF-8"?>
<svg width="20" height="20" viewBox="0 0 40 30" xmlns="http://www.w3.org/2000/svg">
    <path d="m19 21c0-0.2 0-0.3-0.1-0.5l-8.5-16c-0.4-0.6-1.4-0.6-1.8 0l-8.5 16c-0.1 0.2-0.1 0.3-0.1 0.5 0 4.9 4.3 9 9.5 9s9.5-4 9.5-9zm-9.5-13.9 6.8 12.9h-13.6l6.8-12.9zm0 20.9c-3.8 0-6.9-2.6-7.4-6h14.8c-0.5 3.4-3.6 6-7.4 6z"
          fill="currentColor"/>
    <path d="m40 21c0-0.2 0-0.3-0.1-0.5l-8.5-16c-0.3-0.7-1.4-0.7-1.8 0l-8.5 16c-0.1 0.2-0.1 0.3-0.1 0.5 0 4.9 4.3 9 9.5 9s9.5-4 9.5-9zm-9.5-13.9 6.8 12.9h-13.6l6.8-12.9zm0 20.9c-3.8 0-6.9-2.6-7.4-6h14.8c-0.5 3.4-3.6 6-7.4 6z"
          fill="currentColor"/>
    <path d="m22.8 4h4.2c0.6 0 1-0.4 1-1s-0.4-1-1-1h-4.2c-0.4-1.2-1.5-2-2.8-2s-2.4 0.8-2.8 2h-4.2c-0.6 0-1 0.4-1 1s0.4 1 1 1h4.2c0.4 1.2 1.5 2 2.8 2s2.4-0.8 2.8-2zm-2.8 0c-0.6 0-1-0.4-1-1s0.4-1 1-1 1 0.4 1 1-0.4 1-1 1z"
          fill="currentColor"/>
</svg>
