<?xml version="1.0" encoding="UTF-8"?>
<svg width="10" height="10" viewBox="0 0 24 24" fill="none">
    <path d="M23.25 4.5H19.0781C19.2031 4.28125 19.3047 4.04688 19.3828 3.79688C19.4609 3.54688 19.5 3.28125 19.5 3C19.5 2.17188 19.2031 1.46875 18.6094 0.890625C18.0312 0.296875 17.3281 0 16.5 0C15.3281 0 14.375 0.359375 13.6406 1.07812C12.9219 1.79688 12.375 2.51562 12 3.23438C11.625 2.51562 11.0703 1.79688 10.3359 1.07812C9.61719 0.359375 8.67188 0 7.5 0C6.67188 0 5.96094 0.296875 5.36719 0.890625C4.78906 1.46875 4.5 2.17188 4.5 3C4.5 3.28125 4.53906 3.54688 4.61719 3.79688C4.69531 4.04688 4.79688 4.28125 4.92188 4.5H0.75C0.546875 4.5 0.367188 4.57812 0.210938 4.73438C0.0703125 4.875 0 5.04688 0 5.25V9C0 9.20312 0.0703125 9.38281 0.210938 9.53906C0.367188 9.67969 0.546875 9.75 0.75 9.75H2.25V23.25C2.25 23.4531 2.32031 23.625 2.46094 23.7656C2.61719 23.9219 2.79688 24 3 24H21C21.2031 24 21.375 23.9219 21.5156 23.7656C21.6719 23.625 21.75 23.4531 21.75 23.25V9.75H23.25C23.4531 9.75 23.625 9.67969 23.7656 9.53906C23.9219 9.38281 24 9.20312 24 9V5.25C24 5.04688 23.9219 4.875 23.7656 4.73438C23.625 4.57812 23.4531 4.5 23.25 4.5ZM16.5 1.5C16.9062 1.5 17.2578 1.64844 17.5547 1.94531C17.8516 2.24219 18 2.59375 18 3C18 3.40625 17.8516 3.75781 17.5547 4.05469C17.2578 4.35156 16.9062 4.5 16.5 4.5H13.0547C13.3047 3.92188 13.7031 3.28125 14.25 2.57812C14.8125 1.85938 15.5625 1.5 16.5 1.5ZM13.5 6V8.25H10.5V6H13.5ZM6 3C6 2.59375 6.14844 2.24219 6.44531 1.94531C6.74219 1.64844 7.09375 1.5 7.5 1.5C8.42188 1.5 9.16406 1.85938 9.72656 2.57812C10.2891 3.28125 10.6953 3.92188 10.9453 4.5H7.5C7.09375 4.5 6.74219 4.35156 6.44531 4.05469C6.14844 3.75781 6 3.40625 6 3ZM1.5 6H9V8.25H1.5V6ZM3.75 9.75H9V22.5H3.75V9.75ZM10.5 22.5V9.75H13.5V22.5H10.5ZM20.25 22.5H15V9.75H20.25V22.5ZM22.5 8.25H15V6H22.5V8.25Z"
          fill="currentColor"/>
</svg>
