<?xml version="1.0" encoding="UTF-8"?>
<svg width="10" height="10" viewBox="0 0 24 24" fill="none">
    <path d="M12 0C10.3438 0 8.78906 0.320312 7.33594 0.960938C5.88281 1.58594 4.60938 2.44531 3.51562 3.53906C2.4375 4.61719 1.57812 5.88281 0.9375 7.33594C0.3125 8.78906 0 10.3438 0 12C0 13.6562 0.3125 15.2109 0.9375 16.6641C1.57812 18.1172 2.4375 19.3906 3.51562 20.4844C4.60938 21.5625 5.88281 22.4141 7.33594 23.0391C8.78906 23.6797 10.3438 24 12 24C13.6562 24 15.2109 23.6797 16.6641 23.0391C18.1172 22.4141 19.3828 21.5625 20.4609 20.4844C21.5547 19.3906 22.4141 18.1172 23.0391 16.6641C23.6797 15.2109 24 13.6562 24 12C24 10.3438 23.6797 8.78906 23.0391 7.33594C22.4141 5.88281 21.5547 4.61719 20.4609 3.53906C19.3828 2.44531 18.1172 1.58594 16.6641 0.960938C15.2109 0.320312 13.6562 0 12 0ZM12 1.5C13.2812 1.5 14.4922 1.71875 15.6328 2.15625C16.7891 2.59375 17.8203 3.19531 18.7266 3.96094C19.6328 4.71094 20.3984 5.60938 21.0234 6.65625C21.6484 7.6875 22.0781 8.8125 22.3125 10.0312C21.6719 9.84375 20.8281 9.42969 19.7812 8.78906C18.7344 8.13281 17.7188 7.02344 16.7344 5.46094L16.2422 4.71094L15.5859 5.29688C14.8047 6.01562 14.0312 6.57031 13.2656 6.96094C12.5 7.33594 11.75 7.60938 11.0156 7.78125C10.2812 7.95312 9.55469 8.05469 8.83594 8.08594C8.13281 8.11719 7.45312 8.13281 6.79688 8.13281C5.9375 8.13281 5.09375 8.16406 4.26562 8.22656C3.45312 8.28906 2.6875 8.51562 1.96875 8.90625C2.29688 7.84375 2.78125 6.85938 3.42188 5.95312C4.07812 5.04688 4.84375 4.26562 5.71875 3.60938C6.59375 2.9375 7.5625 2.42188 8.625 2.0625C9.70312 1.6875 10.8281 1.5 12 1.5ZM12 22.5C10.5469 22.5 9.17969 22.2266 7.89844 21.6797C6.63281 21.1172 5.52344 20.3672 4.57031 19.4297C3.63281 18.4766 2.88281 17.3672 2.32031 16.1016C1.77344 14.8203 1.5 13.4531 1.5 12C1.5 11.8594 1.5 11.7266 1.5 11.6016C1.51562 11.4609 1.53125 11.3281 1.54688 11.2031C2.1875 10.4219 2.92969 9.96875 3.77344 9.84375C4.63281 9.70312 5.64062 9.63281 6.79688 9.63281C7.45312 9.63281 8.14062 9.61719 8.85938 9.58594C9.57812 9.55469 10.3203 9.46094 11.0859 9.30469C11.8672 9.13281 12.6641 8.86719 13.4766 8.50781C14.2891 8.14844 15.1094 7.64062 15.9375 6.98438C16.5469 7.82812 17.1641 8.53125 17.7891 9.09375C18.4297 9.65625 19.0469 10.1172 19.6406 10.4766C20.2344 10.8203 20.7734 11.0781 21.2578 11.25C21.7578 11.4219 22.1641 11.5469 22.4766 11.625C22.4766 11.6875 22.4766 11.75 22.4766 11.8125C22.4922 11.875 22.5 11.9375 22.5 12C22.5 13.4531 22.2188 14.8203 21.6562 16.1016C21.1094 17.3672 20.3594 18.4766 19.4062 19.4297C18.4688 20.3672 17.3594 21.1172 16.0781 21.6797C14.8125 22.2266 13.4531 22.5 12 22.5ZM8.25 14.25C8.25 14.6719 8.10156 15.0312 7.80469 15.3281C7.52344 15.6094 7.17188 15.75 6.75 15.75C6.32812 15.75 5.96875 15.6094 5.67188 15.3281C5.39062 15.0312 5.25 14.6719 5.25 14.25C5.25 13.8281 5.39062 13.4766 5.67188 13.1953C5.96875 12.8984 6.32812 12.75 6.75 12.75C7.17188 12.75 7.52344 12.8984 7.80469 13.1953C8.10156 13.4766 8.25 13.8281 8.25 14.25ZM18.75 14.25C18.75 14.6719 18.6016 15.0312 18.3047 15.3281C18.0234 15.6094 17.6719 15.75 17.25 15.75C16.8281 15.75 16.4688 15.6094 16.1719 15.3281C15.8906 15.0312 15.75 14.6719 15.75 14.25C15.75 13.8281 15.8906 13.4766 16.1719 13.1953C16.4688 12.8984 16.8281 12.75 17.25 12.75C17.6719 12.75 18.0234 12.8984 18.3047 13.1953C18.6016 13.4766 18.75 13.8281 18.75 14.25Z"
          fill="currentColor"></path>
</svg>
