<?xml version="1.0" encoding="UTF-8"?>
<svg width="10" height="10" viewBox="0 0 24 24" fill="none">
    <path d="M2.12414 21.0408C2.20689 21.1578 2.31448 21.2414 2.44689 21.2915C2.59585 21.325 2.72826 21.3417 2.84412 21.3417L5.94751 20.8652L7.53644 23.5987C7.6192 23.7158 7.71851 23.8161 7.83437 23.8997C7.95023 23.9666 8.09091 24 8.25643 24C8.25643 24 8.28126 24 8.33091 24C8.47987 24 8.61228 23.9582 8.72814 23.8746C8.86055 23.791 8.96814 23.674 9.0509 23.5235L11.8315 17.5799C11.8646 17.5799 11.8895 17.5799 11.906 17.5799C11.9226 17.5799 11.9474 17.5799 11.9805 17.5799C12.0136 17.5799 12.0384 17.5799 12.055 17.5799C12.0715 17.5799 12.0964 17.5799 12.1295 17.5799L14.9101 23.5235C14.9928 23.6405 15.0922 23.7492 15.208 23.8495C15.3404 23.9498 15.4811 24 15.6301 24C15.6466 24 15.6715 24 15.7046 24C15.837 24 15.9694 23.9666 16.1018 23.8997C16.2342 23.8161 16.3418 23.7158 16.4245 23.5987L18.0135 20.8652L21.1169 21.3417C21.2824 21.3918 21.4231 21.3835 21.5389 21.3166C21.6548 21.2497 21.7541 21.1578 21.8369 21.0408C21.9196 20.907 21.9693 20.7732 21.9858 20.6395C22.0189 20.489 21.9941 20.3553 21.9113 20.2382L18.9817 14.0439C19.5279 13.325 19.95 12.5225 20.2479 11.6364C20.5624 10.7335 20.7196 9.79728 20.7196 8.82759C20.7196 7.60711 20.4879 6.46186 20.0245 5.39185C19.5776 4.32184 18.9569 3.38558 18.1624 2.58307C17.368 1.78056 16.4411 1.1536 15.3818 0.702194C14.3225 0.234065 13.1887 0 11.9805 0C10.7722 0 9.63019 0.225705 8.55435 0.677116C7.49506 1.12853 6.56819 1.74713 5.77372 2.53292C4.9958 3.3187 4.37513 4.2466 3.91169 5.31661C3.4648 6.38662 3.24135 7.53187 3.24135 8.75235C3.24135 9.75549 3.39032 10.7001 3.68824 11.5862C4.00272 12.4556 4.43306 13.2497 4.97925 13.9687L2.04965 20.1379C2.01655 20.3051 2 20.4639 2 20.6144C2 20.7649 2.04138 20.907 2.12414 21.0408ZM17.6162 19.185C17.4673 19.1515 17.3183 19.1682 17.1694 19.2351C17.0204 19.302 16.9045 19.419 16.8218 19.5862L15.7046 21.5172L13.8177 17.4295C14.5625 17.2623 15.2825 17.0031 15.9777 16.652C16.6728 16.3009 17.3018 15.8579 17.8645 15.3229L19.8507 19.5862L17.6162 19.185ZM11.9805 1.52978C12.9736 1.52978 13.9005 1.72205 14.7611 2.10658C15.6384 2.4744 16.3997 2.98433 17.0452 3.63636C17.6907 4.2884 18.1955 5.05747 18.5597 5.94357C18.9404 6.81296 19.1307 7.74922 19.1307 8.75235C19.1307 9.5883 18.99 10.3908 18.7086 11.1599C18.4438 11.9122 18.0549 12.6061 17.5418 13.2414C17.5087 13.2915 17.4673 13.3333 17.4176 13.3668C17.3845 13.4002 17.3431 13.442 17.2935 13.4922C16.6976 14.1776 15.9942 14.7294 15.1832 15.1473C14.3722 15.5653 13.4867 15.8161 12.5267 15.8997C12.5267 15.8997 12.5019 15.8997 12.4522 15.8997C12.3695 15.8997 12.2784 15.8997 12.1791 15.8997C12.0798 15.8997 11.9888 15.8997 11.906 15.8997C11.8233 15.8997 11.7405 15.8997 11.6577 15.8997C11.575 15.8997 11.5005 15.8997 11.4343 15.8997C11.3846 15.8997 11.3433 15.8997 11.3102 15.8997C11.2771 15.8997 11.2605 15.8997 11.2605 15.8997C10.3502 15.8161 9.50606 15.5653 8.72814 15.1473C7.95023 14.7294 7.26334 14.1776 6.66749 13.4922C6.61784 13.4086 6.56819 13.3333 6.51853 13.2665C6.48543 13.1829 6.4275 13.1243 6.34474 13.0909C5.86475 12.5225 5.49234 11.8704 5.22752 11.1348C4.9627 10.3824 4.83029 9.5883 4.83029 8.75235C4.83029 7.74922 5.01235 6.81296 5.37649 5.94357C5.75717 5.05747 6.27026 4.2884 6.91577 3.63636C7.56127 2.98433 8.31436 2.4744 9.17503 2.10658C10.0523 1.72205 10.9874 1.52978 11.9805 1.52978ZM6.09647 15.2476C6.65922 15.7659 7.28817 16.209 7.98333 16.5768C8.67849 16.9279 9.39847 17.1787 10.1433 17.3292L8.25643 21.442L7.13921 19.511C7.05645 19.3939 6.94059 19.302 6.79163 19.2351C6.64267 19.1515 6.4937 19.1097 6.34474 19.1097L4.18478 19.4357L6.09647 15.2476Z"
          fill="currentColor"/>
</svg>
