<?xml version="1.0" encoding="UTF-8"?>
<svg width="10" height="10" viewBox="0 0 24 24" fill="none">
    <path d="M21 11H18.2344L11.6953 5.89062C11.6172 5.85938 11.5391 5.82812 11.4609 5.79688C11.3984 5.76562 11.3281 5.75 11.25 5.75H9.75C9.59375 5.75 9.46094 5.78906 9.35156 5.86719C9.24219 5.94531 9.14844 6.05469 9.07031 6.19531C9.07031 6.19531 8.83594 6.5 8.36719 7.10938C7.91406 7.70312 7.125 8 6 8C4.90625 8 4.125 7.71094 3.65625 7.13281C3.20312 6.55469 2.96094 6.24219 2.92969 6.19531C2.85156 6.05469 2.75781 5.94531 2.64844 5.86719C2.53906 5.78906 2.40625 5.75 2.25 5.75H0.75C0.53125 5.75 0.351562 5.82031 0.210938 5.96094C0.0703125 6.10156 0 6.28125 0 6.5V17C0 17.6406 0.210938 18.1797 0.632812 18.6172C1.07031 19.0391 1.60938 19.25 2.25 19.25H21.75C22.3906 19.25 22.9219 19.0391 23.3438 18.6172C23.7812 18.1797 24 17.6406 24 17V14C24 13.1719 23.7031 12.4688 23.1094 11.8906C22.5312 11.2969 21.8281 11 21 11ZM1.80469 7.25C2.07031 7.625 2.53125 8.09375 3.1875 8.65625C3.85938 9.21875 4.79688 9.5 6 9.5C7.20312 9.5 8.13281 9.21875 8.78906 8.65625C9.46094 8.09375 9.92969 7.625 10.1953 7.25H11.0156L17.5547 12.3594C17.6328 12.3906 17.7031 12.4219 17.7656 12.4531C17.8438 12.4844 17.9219 12.5 18 12.5H21C21.4062 12.5 21.7578 12.6484 22.0547 12.9453C22.3516 13.2422 22.5 13.5938 22.5 14V14.75H1.5V7.25H1.80469ZM21.75 17.75H2.25C2.03125 17.75 1.85156 17.6797 1.71094 17.5391C1.57031 17.3984 1.5 17.2188 1.5 17V16.25H22.5V17C22.5 17.2188 22.4297 17.3984 22.2891 17.5391C22.1484 17.6797 21.9688 17.75 21.75 17.75Z"
          fill="currentColor"/>
</svg>
