<?xml version="1.0" encoding="UTF-8"?>
<svg width="10" height="10" viewBox="0 0 24 24" fill="none">
    <path d="M14.7465 1.11002C14.583 1.022 14.4114 0.986797 14.2315 1.0044C14.068 1.0044 13.9291 1.06601 13.8146 1.18924L1.25924 13.8638C1.12845 14.0398 1.04671 14.2158 1.01401 14.3919C0.981316 14.5503 1.00584 14.7175 1.08758 14.8936C1.13662 15.0168 1.22654 15.1312 1.35732 15.2368C1.48811 15.3425 1.63524 15.3953 1.79873 15.3953H10.2834L8.86115 21.9966C8.82845 22.155 8.8448 22.3311 8.91019 22.5247C8.97558 22.7007 9.09002 22.8328 9.2535 22.9208C9.33525 22.956 9.40064 22.9824 9.44968 23C9.49873 23 9.56412 23 9.64586 23C9.7276 23 9.81752 22.9824 9.91561 22.9472C10.03 22.8944 10.12 22.824 10.1854 22.7359L22.7408 10.0614C22.8716 9.93819 22.9533 9.79736 22.986 9.63893C23.0187 9.4805 22.9942 9.31326 22.9124 9.13723C22.8634 9.014 22.7735 8.89958 22.6427 8.79396C22.5119 8.68834 22.3648 8.63553 22.2013 8.63553H13.7166L15.1389 2.03421C15.1716 1.87578 15.1552 1.70854 15.0898 1.53251C15.0244 1.33887 14.91 1.19804 14.7465 1.11002ZM20.2395 10.3255L10.9701 19.6993L12 14.8144C12.0327 14.6735 12.0327 14.5503 12 14.4447C11.9673 14.3215 11.9183 14.2158 11.8529 14.1278C11.7711 13.9518 11.673 13.8374 11.5586 13.7846C11.4442 13.7317 11.3297 13.7053 11.2153 13.7053H3.76051L13.0299 4.33147L12 9.32206C11.9673 9.44529 11.9673 9.56851 12 9.69174C12.0327 9.79736 12.0817 9.89418 12.1471 9.9822C12.2289 10.0702 12.327 10.1494 12.4414 10.2198C12.5558 10.2903 12.6703 10.3255 12.7847 10.3255H20.2395Z"
          fill="currentColor"/>
</svg>
