<?xml version="1.0" encoding="UTF-8"?>
<svg width="31" height="28" viewBox="0 0 16 15" fill="none">
    <path d="M8.15625 1.34375C8.13542 1.375 8.10938 1.40625 8.07812 1.4375C8.05729 1.45833 8.03125 1.48438 8 1.51562C7.96875 1.48438 7.9375 1.45833 7.90625 1.4375C7.88542 1.40625 7.86458 1.375 7.84375 1.34375C7.39583 0.895833 6.88542 0.5625 6.3125 0.34375C5.75 0.114583 5.17188 0 4.57812 0C3.99479 0 3.42188 0.114583 2.85938 0.34375C2.29688 0.5625 1.79167 0.895833 1.34375 1.34375C0.90625 1.78125 0.572917 2.28125 0.34375 2.84375C0.114583 3.39583 0 3.97917 0 4.59375C0 5.20833 0.114583 5.79688 0.34375 6.35938C0.572917 6.91146 0.90625 7.40625 1.34375 7.84375L7.64062 14.1406C7.69271 14.1823 7.75 14.2135 7.8125 14.2344C7.875 14.2656 7.9375 14.2812 8 14.2812C8.0625 14.2812 8.125 14.2656 8.1875 14.2344C8.25 14.2135 8.30729 14.1823 8.35938 14.1406L14.6562 7.84375C15.0938 7.40625 15.4271 6.91146 15.6562 6.35938C15.8854 5.79688 16 5.20833 16 4.59375C16 3.97917 15.8854 3.39583 15.6562 2.84375C15.4271 2.28125 15.0938 1.78125 14.6562 1.34375C14.2083 0.895833 13.7031 0.5625 13.1406 0.34375C12.5781 0.114583 12 0 11.4062 0C10.8229 0 10.2448 0.114583 9.67188 0.34375C9.10938 0.5625 8.60417 0.895833 8.15625 1.34375ZM13.9531 7.125L8 13.0781L2.04688 7.125C1.71354 6.79167 1.45312 6.40625 1.26562 5.96875C1.08854 5.53125 1 5.07292 1 4.59375C1 4.11458 1.08854 3.65625 1.26562 3.21875C1.45312 2.78125 1.71354 2.39062 2.04688 2.04688C2.40104 1.70312 2.79688 1.44271 3.23438 1.26562C3.68229 1.08854 4.13542 1 4.59375 1C5.05208 1 5.5 1.08854 5.9375 1.26562C6.38542 1.44271 6.78125 1.70312 7.125 2.04688C7.20833 2.13021 7.28646 2.21875 7.35938 2.3125C7.44271 2.40625 7.51562 2.50521 7.57812 2.60938C7.67188 2.74479 7.8125 2.8125 8 2.8125C8.1875 2.8125 8.32812 2.74479 8.42188 2.60938C8.48438 2.50521 8.55208 2.40625 8.625 2.3125C8.70833 2.21875 8.79167 2.13021 8.875 2.04688C9.21875 1.70312 9.60938 1.44271 10.0469 1.26562C10.4948 1.08854 10.9479 1 11.4062 1C11.8646 1 12.3125 1.08854 12.75 1.26562C13.1979 1.44271 13.599 1.70312 13.9531 2.04688C14.2865 2.39062 14.5417 2.78125 14.7188 3.21875C14.9062 3.65625 15 4.11458 15 4.59375C15 5.07292 14.9062 5.53125 14.7188 5.96875C14.5417 6.40625 14.2865 6.79167 13.9531 7.125Z"
          fill="currentColor"></path>
</svg>
