<?xml version="1.0" encoding="UTF-8"?>
<svg width="10" height="10" viewBox="0 0 24 24" fill="none">
    <path d="M9.75 13.125C9.75 13.4375 9.64062 13.7031 9.42188 13.9219C9.20312 14.1406 8.9375 14.25 8.625 14.25C8.3125 14.25 8.04688 14.1406 7.82812 13.9219C7.60938 13.7031 7.5 13.4375 7.5 13.125C7.5 12.8125 7.60938 12.5469 7.82812 12.3281C8.04688 12.1094 8.3125 12 8.625 12C8.9375 12 9.20312 12.1094 9.42188 12.3281C9.64062 12.5469 9.75 12.8125 9.75 13.125ZM16.5 13.125C16.5 13.4375 16.3906 13.7031 16.1719 13.9219C15.9531 14.1406 15.6875 14.25 15.375 14.25C15.0625 14.25 14.7969 14.1406 14.5781 13.9219C14.3594 13.7031 14.25 13.4375 14.25 13.125C14.25 12.8125 14.3594 12.5469 14.5781 12.3281C14.7969 12.1094 15.0625 12 15.375 12C15.6875 12 15.9531 12.1094 16.1719 12.3281C16.3906 12.5469 16.5 12.8125 16.5 13.125ZM12 0C10.3438 0 8.78906 0.320312 7.33594 0.960938C5.88281 1.58594 4.60938 2.44531 3.51562 3.53906C2.4375 4.61719 1.57812 5.88281 0.9375 7.33594C0.3125 8.78906 0 10.3438 0 12V20.5547L0.210938 20.7891C0.242188 20.8203 0.476562 21.0078 0.914062 21.3516C1.36719 21.6797 2.05469 22.0469 2.97656 22.4531C3.91406 22.8438 5.125 23.1953 6.60938 23.5078C8.09375 23.8359 9.89062 24 12 24C14.1094 24 15.9062 23.8359 17.3906 23.5078C18.875 23.1953 20.0781 22.8438 21 22.4531C21.9375 22.0469 22.625 21.6797 23.0625 21.3516C23.5156 21.0078 23.7578 20.8203 23.7891 20.7891L24 20.5547V12C24 10.3438 23.6797 8.78906 23.0391 7.33594C22.4141 5.88281 21.5547 4.61719 20.4609 3.53906C19.3828 2.44531 18.1172 1.58594 16.6641 0.960938C15.2109 0.320312 13.6562 0 12 0ZM22.5 19.8984C22.2969 20.0547 21.9453 20.2812 21.4453 20.5781C20.9609 20.8594 20.2891 21.1484 19.4297 21.4453C18.5859 21.7266 17.5469 21.9766 16.3125 22.1953C15.0938 22.3984 13.6562 22.5 12 22.5C10.3594 22.5 8.92188 22.3984 7.6875 22.1953C6.46875 21.9766 5.42969 21.7266 4.57031 21.4453C3.72656 21.1484 3.05469 20.8594 2.55469 20.5781C2.05469 20.2812 1.70312 20.0547 1.5 19.8984V12C1.5 10.5469 1.77344 9.1875 2.32031 7.92188C2.88281 6.64062 3.63281 5.53125 4.57031 4.59375C5.52344 3.64062 6.63281 2.89062 7.89844 2.34375C9.17969 1.78125 10.5469 1.5 12 1.5C13.4531 1.5 14.8125 1.78125 16.0781 2.34375C17.3594 2.89062 18.4688 3.64062 19.4062 4.59375C20.3594 5.53125 21.1094 6.64062 21.6562 7.92188C22.2188 9.1875 22.5 10.5469 22.5 12V19.8984ZM15.9844 3.9375L15.4453 3.65625L15.0469 4.14844C14.5469 4.80469 13.9844 5.39062 13.3594 5.90625C12.75 6.40625 12.0859 6.83594 11.3672 7.19531C10.6641 7.53906 9.92188 7.80469 9.14062 7.99219C8.35938 8.16406 7.5625 8.25 6.75 8.25C6.39062 8.25 6.02344 8.23438 5.64844 8.20312C5.28906 8.15625 4.92969 8.09375 4.57031 8.01562L3.96094 7.89844L3.72656 8.46094C3.49219 9.02344 3.3125 9.60156 3.1875 10.1953C3.0625 10.7891 3 11.3906 3 12C3 13.2344 3.23438 14.3984 3.70312 15.4922C4.17188 16.5859 4.8125 17.5469 5.625 18.375C6.45312 19.1875 7.41406 19.8281 8.50781 20.2969C9.60156 20.7656 10.7656 21 12 21C13.2344 21 14.3984 20.7656 15.4922 20.2969C16.5859 19.8281 17.5391 19.1875 18.3516 18.375C19.1797 17.5469 19.8281 16.5859 20.2969 15.4922C20.7656 14.3984 21 13.2344 21 12C21 11.1406 20.8828 10.3125 20.6484 9.51562C20.4141 8.70312 20.0781 7.95312 19.6406 7.26562C19.2188 6.5625 18.6953 5.92969 18.0703 5.36719C17.4609 4.80469 16.7656 4.32812 15.9844 3.9375ZM12 19.5C10.9688 19.5 9.99219 19.3047 9.07031 18.9141C8.16406 18.5234 7.36719 17.9922 6.67969 17.3203C6.00781 16.6328 5.47656 15.8359 5.08594 14.9297C4.69531 14.0078 4.5 13.0312 4.5 12C4.5 11.5938 4.53125 11.1875 4.59375 10.7812C4.65625 10.375 4.75781 9.98438 4.89844 9.60938C5.19531 9.65625 5.5 9.69531 5.8125 9.72656C6.125 9.74219 6.4375 9.75 6.75 9.75C7.625 9.75 8.48438 9.65625 9.32812 9.46875C10.1719 9.28125 10.9766 9.01562 11.7422 8.67188C12.5234 8.3125 13.2578 7.875 13.9453 7.35938C14.6328 6.82812 15.2656 6.23438 15.8438 5.57812C16.4062 5.90625 16.9141 6.30469 17.3672 6.77344C17.8203 7.22656 18.2031 7.73438 18.5156 8.29688C18.8281 8.84375 19.0703 9.42969 19.2422 10.0547C19.4141 10.6797 19.5 11.3281 19.5 12C19.5 13.0312 19.3047 14.0078 18.9141 14.9297C18.5234 15.8359 17.9844 16.6328 17.2969 17.3203C16.625 17.9922 15.8281 18.5234 14.9062 18.9141C14 19.3047 13.0312 19.5 12 19.5Z"
          fill="currentColor"></path>
</svg>
