<?xml version="1.0" encoding="UTF-8"?>
<svg width="50" height="50" viewBox="0 0 50 50" fill="none" xmlns="http://www.w3.org/2000/svg">
    <rect width="50" height="50" fill="white"/>
    <path d="M49.7119 0.463867C49.5979 0.317383 49.4514 0.203451 49.2724 0.12207C49.1096 0.0406901 48.9387 0 48.7596 0H47.49C44.3321 0 41.3452 0.00813802 38.5292 0.0244141C35.7131 0.0406901 33.0599 0.105794 30.5694 0.219727C28.0789 0.333659 25.7512 0.512695 23.5863 0.756836C21.4214 0.984701 19.4274 1.31836 17.6043 1.75781C16.6113 1.98568 15.6754 2.25423 14.7964 2.56348C13.9337 2.85645 13.1116 3.18197 12.3303 3.54004C11.5653 3.89811 10.8409 4.28874 10.1572 4.71191C9.48986 5.13509 8.86317 5.59896 8.27717 6.10352C7.65863 6.64062 7.08077 7.21842 6.54361 7.83691C6.02272 8.4554 5.54253 9.12272 5.10304 9.83887C4.67982 10.5387 4.29729 11.2956 3.95546 12.1094C3.61363 12.9069 3.3125 13.7614 3.05206 14.6729C2.88928 15.2751 2.75092 15.9912 2.63698 16.8213C2.52303 17.6351 2.46606 18.5303 2.46606 19.5068C2.46606 20.4671 2.53931 21.4844 2.68581 22.5586C2.83231 23.6165 3.06833 24.6826 3.39389 25.7568C3.63805 26.5706 3.94733 27.3519 4.32171 28.1006C4.71237 28.8493 5.16001 29.5736 5.66462 30.2734C4.89957 31.4616 4.17521 32.7474 3.49155 34.1309C2.80789 35.498 2.20562 36.9548 1.68473 38.501C1.18013 40.0472 0.773187 41.6829 0.463912 43.4082C0.154638 45.1172 0 46.8994 0 48.7549C0 49.0967 0.122082 49.3896 0.366247 49.6338C0.610411 49.8779 0.903409 50 1.24524 50C1.58707 50 1.88007 49.8779 2.12423 49.6338C2.3684 49.3896 2.49048 49.0967 2.49048 48.7549C2.49048 45.874 2.86486 43.1885 3.61363 40.6982C4.37868 38.208 5.31465 35.9456 6.42153 33.9111C7.5284 31.8766 8.70853 30.0781 9.96191 28.5156C11.2316 26.9531 12.371 25.6592 13.3802 24.6338C14.1127 23.9176 14.8615 23.2259 15.6265 22.5586C16.4079 21.875 17.1973 21.2402 17.9949 20.6543C18.8088 20.0521 19.6227 19.4906 20.4366 18.9697C21.2667 18.4326 22.0969 17.9525 22.927 17.5293C23.6921 17.1224 24.449 16.7643 25.1978 16.4551C25.9628 16.1296 26.6953 15.861 27.3953 15.6494C28.0952 15.4378 28.7707 15.2832 29.4218 15.1855C30.0729 15.0716 30.6833 15.0146 31.2531 15.0146C31.5949 15.0146 31.8879 14.8926 32.132 14.6484C32.3762 14.4043 32.4983 14.1113 32.4983 13.7695C32.4983 13.4115 32.3762 13.1104 32.132 12.8662C31.8879 12.6221 31.5949 12.5 31.2531 12.5C30.5694 12.5 29.8532 12.5651 29.1044 12.6953C28.3719 12.8092 27.6069 12.9883 26.8093 13.2324C26.0117 13.4603 25.1896 13.7533 24.3432 14.1113C23.4968 14.4531 22.634 14.8519 21.7551 15.3076C20.8761 15.7796 19.9971 16.2923 19.1181 16.8457C18.2391 17.3991 17.3682 17.9932 16.5055 18.6279C15.6591 19.2627 14.8208 19.9382 13.9906 20.6543C13.1767 21.3542 12.3873 22.0947 11.6222 22.876C10.9711 23.527 10.263 24.292 9.498 25.1709C8.73295 26.0335 7.95976 26.9938 7.17844 28.0518C6.88544 27.5798 6.61686 27.0915 6.37269 26.5869C6.14481 26.0824 5.94947 25.5615 5.7867 25.0244C5.47742 24.0153 5.25767 23.0225 5.12745 22.0459C5.01351 21.0531 4.95654 20.1335 4.95654 19.2871C4.97282 18.4408 5.02979 17.6758 5.12745 16.9922C5.2414 16.3086 5.35534 15.7633 5.46928 15.3564C6.36455 12.1501 7.88651 9.67611 10.0352 7.93457C12.1838 6.19303 14.9917 4.9235 18.4588 4.12598C21.926 3.31217 26.0523 2.84017 30.838 2.70996C35.6236 2.57975 41.101 2.51465 47.2702 2.51465C46.5215 6.43717 45.6181 10.0179 44.56 13.2568C43.5182 16.4958 42.3137 19.3766 40.9464 21.8994C39.5953 24.4222 38.0815 26.5951 36.4049 28.418C34.7446 30.2246 32.9296 31.6732 30.9601 32.7637C29.137 33.7728 27.3383 34.432 25.564 34.7412C23.7898 35.0505 22.1376 35.1562 20.6075 35.0586C19.0774 34.9609 17.7019 34.7412 16.4811 34.3994C15.2766 34.0576 14.3325 33.7484 13.6488 33.4717C13.3558 33.3415 13.0628 33.2031 12.7698 33.0566C12.4768 32.9102 12.1838 32.7555 11.8908 32.5928C11.5978 32.4137 11.2804 32.3649 10.9386 32.4463C10.613 32.5277 10.3607 32.723 10.1817 33.0322C10.0026 33.3252 9.95377 33.6426 10.0352 33.9844C10.1165 34.3099 10.3119 34.5622 10.6212 34.7412C10.9467 34.9365 11.2804 35.1237 11.6222 35.3027C11.9803 35.4818 12.3384 35.6364 12.6966 35.7666C13.4779 36.0921 14.479 36.4339 15.6998 36.792C16.9206 37.1338 18.3042 37.3698 19.8506 37.5C20.1924 37.5326 20.5342 37.557 20.8761 37.5732C21.2179 37.5732 21.5597 37.5732 21.9016 37.5732C22.8131 37.5732 23.7084 37.5244 24.5874 37.4268C25.4826 37.3128 26.3616 37.1501 27.2243 36.9385C28.0871 36.7106 28.9254 36.4339 29.7392 36.1084C30.5694 35.7666 31.3833 35.3841 32.1809 34.9609C33.1901 34.3913 34.1586 33.7484 35.0864 33.0322C36.0305 32.2998 36.9339 31.486 37.7967 30.5908C38.6594 29.6794 39.4814 28.6947 40.2627 27.6367C41.0603 26.5625 41.8172 25.415 42.5334 24.1943C43.3636 22.7458 44.1449 21.1914 44.8774 19.5312C45.6099 17.8548 46.2854 16.0645 46.904 14.1602C47.5225 12.2559 48.0841 10.2458 48.5887 8.12988C49.1096 6.014 49.5735 3.79232 49.9805 1.46484C50.013 1.28581 50.0049 1.10677 49.956 0.927734C49.9072 0.748698 49.8258 0.594076 49.7119 0.463867Z" fill="#64A862"/>
</svg>