<?xml version="1.0" encoding="UTF-8"?>
<svg width="50" height="50" viewBox="0 0 50 50" fill="none" xmlns="http://www.w3.org/2000/svg">
    <rect width="50" height="50" fill="white"/>
    <path d="M20.2133 1.26953C20.2133 0.911458 20.0914 0.610352 19.8476 0.366211C19.6038 0.12207 19.3113 0 18.97 0C18.6287 0 18.3362 0.12207 18.0924 0.366211C17.8486 0.610352 17.7267 0.911458 17.7267 1.26953C17.7267 2.08333 17.7592 2.86458 17.8243 3.61328C17.9055 4.36198 17.9949 5.07812 18.0924 5.76172C18.2062 6.44531 18.3281 7.09635 18.4581 7.71484C18.6043 8.31706 18.7344 8.89486 18.8481 9.44824C19.1081 10.5062 19.295 11.4421 19.4088 12.2559C19.5388 13.0534 19.4657 13.623 19.1894 13.9648C18.9456 14.2578 18.4906 14.4938 17.8243 14.6729C17.1742 14.8356 16.3128 14.9414 15.2402 14.9902C15.2402 14.7786 15.2321 14.5752 15.2158 14.3799C15.2158 14.1683 15.2158 13.9648 15.2158 13.7695V3.75977C15.2158 3.41797 15.0939 3.125 14.8502 2.88086C14.6064 2.63672 14.3139 2.51465 13.9726 2.51465C13.6313 2.51465 13.3387 2.63672 13.095 2.88086C12.8512 3.125 12.7293 3.41797 12.7293 3.75977V13.7695C12.7293 13.9648 12.7293 14.1683 12.7293 14.3799C12.7293 14.5752 12.7293 14.7786 12.7293 14.9902C11.6404 14.9414 10.7628 14.8356 10.0965 14.6729C9.44643 14.4938 9.00763 14.2578 8.7801 13.9648C8.50382 13.6068 8.42256 13.029 8.53632 12.2314C8.66634 11.4339 8.85324 10.498 9.09701 9.42383C9.22703 8.88672 9.35704 8.30892 9.48706 7.69043C9.61707 7.07194 9.73896 6.4209 9.85272 5.7373C9.96649 5.05371 10.0559 4.3457 10.1209 3.61328C10.2021 2.86458 10.2428 2.08333 10.2428 1.26953C10.2428 0.911458 10.1209 0.610352 9.8771 0.366211C9.63332 0.12207 9.33266 0 8.97512 0C8.63384 0 8.3413 0.12207 8.09752 0.366211C7.85375 0.610352 7.73186 0.911458 7.73186 1.26953C7.73186 2.75065 7.60997 4.13411 7.36619 5.41992C7.13867 6.68945 6.90301 7.83691 6.65924 8.8623C6.35045 10.262 6.13918 11.5153 6.02542 12.6221C5.91165 13.7288 6.17981 14.6973 6.82988 15.5273C7.31744 16.1296 8.02439 16.5934 8.95075 16.9189C9.8771 17.2282 11.1122 17.4154 12.6562 17.4805C12.5912 19.222 12.4774 20.9066 12.3149 22.5342C12.1686 24.1455 11.998 25.6999 11.8029 27.1973C11.6079 28.6947 11.3966 30.1351 11.1691 31.5186C10.9578 32.8857 10.7466 34.1878 10.5353 35.4248C10.259 37.085 10.0152 38.5986 9.80397 39.9658C9.59269 41.333 9.46268 42.57 9.41392 43.6768C9.38142 44.7673 9.44643 45.7275 9.60895 46.5576C9.77146 47.3714 10.0884 48.0632 10.5597 48.6328C10.9497 49.0885 11.4292 49.4303 11.998 49.6582C12.5668 49.8861 13.225 50 13.9726 50C14.7201 50 15.3783 49.8861 15.9472 49.6582C16.5322 49.4303 17.0117 49.0885 17.3855 48.6328C17.8568 48.0632 18.1737 47.3714 18.3362 46.5576C18.515 45.7275 18.58 44.7673 18.5312 43.6768C18.4824 42.57 18.3524 41.333 18.1412 39.9658C17.9461 38.5824 17.7105 37.0687 17.4342 35.4248C17.2229 34.1715 17.0035 32.8613 16.776 31.4941C16.5647 30.127 16.3616 28.6947 16.1666 27.1973C15.9715 25.6999 15.7928 24.1455 15.6303 22.5342C15.484 20.9066 15.3783 19.222 15.3133 17.4805C16.841 17.4154 18.068 17.2282 18.9944 16.9189C19.937 16.6097 20.6521 16.1458 21.1396 15.5273C21.7897 14.6973 22.0579 13.737 21.9441 12.6465C21.8303 11.5397 21.6109 10.2865 21.2859 8.88672C21.0421 7.84505 20.7983 6.68945 20.5546 5.41992C20.327 4.13411 20.2133 2.75065 20.2133 1.26953ZM15.484 46.9971C15.4027 47.111 15.2483 47.2249 15.0208 47.3389C14.8095 47.4528 14.4601 47.5098 13.9726 47.5098C13.485 47.5098 13.1356 47.4528 12.9243 47.3389C12.713 47.2249 12.5587 47.111 12.4611 46.9971C12.1849 46.6715 12.0142 46.1589 11.9492 45.459C11.8842 44.7428 11.8923 43.8965 11.9736 42.9199C12.0548 41.9271 12.1849 40.8285 12.3636 39.624C12.5587 38.4196 12.7699 37.1582 12.9975 35.8398C13.16 34.8796 13.3225 33.8867 13.485 32.8613C13.6475 31.8359 13.81 30.7699 13.9726 29.6631C14.1351 30.7699 14.2976 31.8359 14.4601 32.8613C14.6389 33.8867 14.8095 34.8796 14.9721 35.8398C15.1833 37.1582 15.3865 38.4196 15.5815 39.624C15.7765 40.8285 15.9147 41.9271 15.9959 42.9199C16.0772 43.8965 16.0853 44.7428 16.0203 45.459C15.9553 46.1589 15.7765 46.6715 15.484 46.9971ZM39.8861 35.4248C39.6423 33.96 39.3904 32.4137 39.1304 30.7861C38.8704 29.1423 38.6347 27.417 38.4235 25.6104C38.2122 23.8037 38.0334 21.9157 37.8871 19.9463C37.7571 17.9606 37.6921 15.9017 37.6921 13.7695V1.26953C37.6921 0.976562 37.6027 0.724284 37.424 0.512695C37.2615 0.284831 37.0421 0.130208 36.7658 0.0488281C36.4895 -0.016276 36.2213 0.00813802 35.9613 0.12207C35.7013 0.219727 35.4981 0.390625 35.3519 0.634766C34.1005 2.84831 33.0035 5.25716 32.0609 7.86133C31.1183 10.4655 30.33 12.9069 29.6962 15.1855C29.0624 17.4642 28.583 19.3929 28.2579 20.9717C27.9329 22.5342 27.7541 23.3887 27.7216 23.5352C27.6891 23.7142 27.6972 23.8932 27.746 24.0723C27.7948 24.2513 27.876 24.4141 27.9898 24.5605C28.1198 24.707 28.2661 24.821 28.4286 24.9023C28.5911 24.9674 28.7699 25 28.9649 25H34.523C34.4255 25.9766 34.3117 26.9206 34.1817 27.832C34.0517 28.7435 33.9217 29.6387 33.7917 30.5176C33.6617 31.3802 33.5235 32.2266 33.3773 33.0566C33.2472 33.8704 33.1172 34.6598 32.9872 35.4248C32.7109 37.085 32.4672 38.5986 32.2559 39.9658C32.0609 41.333 31.939 42.57 31.8902 43.6768C31.8415 44.7673 31.8983 45.7275 32.0609 46.5576C32.2396 47.3714 32.5647 48.0632 33.036 48.6328C33.4098 49.0885 33.8811 49.4303 34.4499 49.6582C35.035 49.8861 35.7013 50 36.4489 50C37.1964 50 37.8546 49.8861 38.4235 49.6582C38.9923 49.4303 39.4717 49.0885 39.8617 48.6328C40.333 48.0632 40.65 47.3714 40.8125 46.5576C40.975 45.7275 41.0319 44.7673 40.9831 43.6768C40.9506 42.57 40.8287 41.333 40.6175 39.9658C40.4062 38.5824 40.1624 37.0687 39.8861 35.4248ZM30.4763 22.5098C30.6388 21.7773 30.8501 20.8333 31.1101 19.6777C31.3864 18.5059 31.7196 17.2119 32.1096 15.7959C32.5159 14.3799 32.971 12.8906 33.4748 11.3281C33.9948 9.76562 34.5718 8.22754 35.2056 6.71387V13.7695C35.2056 14.5345 35.1893 15.2913 35.1568 16.04C35.1406 16.7887 35.1162 17.5293 35.0837 18.2617C35.0512 18.9941 35.0106 19.7184 34.9618 20.4346C34.9131 21.1344 34.8562 21.8262 34.7912 22.5098H30.4763ZM37.9603 46.9971C37.8628 47.111 37.7084 47.2249 37.4971 47.3389C37.2858 47.4528 36.9364 47.5098 36.4489 47.5098C35.9613 47.5098 35.6038 47.4528 35.3762 47.3389C35.165 47.2249 35.0187 47.111 34.9374 46.9971C34.6449 46.6715 34.4661 46.1589 34.4011 45.459C34.3524 44.7428 34.3605 43.8965 34.4255 42.9199C34.5068 41.9271 34.6449 40.8285 34.8399 39.624C35.0349 38.4196 35.2381 37.1582 35.4494 35.8398C35.6119 34.8796 35.7744 33.8867 35.9369 32.8613C36.1157 31.8359 36.2863 30.7699 36.4489 29.6631C36.6114 30.7699 36.7739 31.8359 36.9364 32.8613C37.0989 33.8867 37.2615 34.8796 37.424 35.8398C37.6515 37.1582 37.8546 38.4196 38.0334 39.624C38.2284 40.8285 38.3666 41.9271 38.4478 42.9199C38.5291 43.8965 38.5372 44.7428 38.4722 45.459C38.4072 46.1589 38.2366 46.6715 37.9603 46.9971Z" fill="#64A862"/>
</svg>