<?xml version="1.0" encoding="UTF-8"?>
<svg width="50" height="50" viewBox="0 0 50 50" fill="none" xmlns="http://www.w3.org/2000/svg">
    <path d="M48.2321 28.0273C48.7965 27.3926 49.2281 26.5869 49.5269 25.6104C49.8423 24.6338 50 23.641 50 22.6318C50 21.9645 49.9253 21.346 49.7759 20.7764C49.6431 20.2067 49.4356 19.7021 49.1534 19.2627C48.7882 18.693 48.3234 18.2617 47.759 17.9688C47.2112 17.6595 46.5886 17.5049 45.8914 17.5049H39.2181C40.1311 15.8936 40.8699 14.3799 41.4343 12.9639C41.9987 11.5316 42.3971 10.2132 42.6295 9.00879C42.8619 7.78809 42.92 6.68131 42.8038 5.68848C42.6876 4.67936 42.4054 3.78418 41.9572 3.00293C41.3098 1.89616 40.4797 1.12305 39.4671 0.683594C38.4545 0.227865 37.5415 0 36.7281 0C36.4127 0 36.1305 0.105794 35.8815 0.317383C35.6491 0.528971 35.508 0.789388 35.4582 1.09863C35.3586 1.91243 35.1179 2.76693 34.7361 3.66211C34.3708 4.55729 33.8811 5.46875 33.2669 6.39648C32.6693 7.30794 31.9638 8.22754 31.1504 9.15527C30.337 10.083 29.424 10.9945 28.4114 11.8896C27.4485 12.736 26.4276 13.5417 25.3486 14.3066C24.2862 15.0716 23.1823 15.7878 22.0369 16.4551C20.908 17.1061 19.746 17.7002 18.5508 18.2373C17.3556 18.7744 16.1521 19.2464 14.9402 19.6533C14.6248 19.0186 14.16 18.5059 13.5458 18.1152C12.9316 17.7083 12.2427 17.5049 11.4791 17.5049H3.83466C2.77224 17.5049 1.86753 17.8711 1.12052 18.6035C0.373506 19.3359 0 20.223 0 21.2646V43.75C0 44.7917 0.373506 45.6787 1.12052 46.4111C1.86753 47.1436 2.77224 47.5098 3.83466 47.5098H11.4791C12.2759 47.5098 12.998 47.29 13.6454 46.8506C14.2928 46.3949 14.7576 45.8252 15.0398 45.1416C17.5299 45.4346 19.3725 45.8171 20.5677 46.2891C21.7629 46.7448 22.8171 47.2087 23.7301 47.6807C24.3111 47.9899 24.9004 48.2829 25.498 48.5596C26.1122 48.8363 26.8426 49.0804 27.6892 49.292C28.5359 49.5036 29.5568 49.6745 30.752 49.8047C31.9638 49.9349 33.4495 50 35.2092 50C36.1388 50 37.0186 49.8861 37.8486 49.6582C38.6952 49.4303 39.4422 49.1048 40.0896 48.6816C40.7205 48.2747 41.2351 47.7865 41.6335 47.2168C42.0485 46.6309 42.3224 46.0042 42.4552 45.3369C42.9532 45.1253 43.4263 44.7917 43.8745 44.3359C44.3227 43.8802 44.7211 43.3024 45.0697 42.6025C45.4017 41.9189 45.6673 41.1784 45.8665 40.3809C46.0657 39.5833 46.1653 38.8591 46.1653 38.208C46.1653 38.0778 46.157 37.9557 46.1404 37.8418C46.1404 37.7279 46.1321 37.6221 46.1155 37.5244C46.4475 37.2803 46.7547 36.9792 47.0369 36.6211C47.3191 36.263 47.5847 35.848 47.8337 35.376C48.1823 34.6924 48.4479 33.9518 48.6305 33.1543C48.8297 32.3405 48.9293 31.5592 48.9293 30.8105C48.9293 30.2897 48.8795 29.8096 48.7799 29.3701C48.6803 28.9307 48.5309 28.54 48.3317 28.1982C48.3151 28.1657 48.2985 28.1413 48.2819 28.125C48.2653 28.0924 48.2487 28.0599 48.2321 28.0273ZM11.4791 45.0195H3.83466C3.46946 45.0195 3.16235 44.8975 2.91335 44.6533C2.66434 44.4092 2.53984 44.1081 2.53984 43.75V21.2646C2.53984 20.9229 2.66434 20.6299 2.91335 20.3857C3.16235 20.1416 3.46946 20.0195 3.83466 20.0195H11.4791C11.8277 20.0195 12.1265 20.1416 12.3755 20.3857C12.6245 20.6299 12.749 20.9229 12.749 21.2646V43.75C12.749 44.1081 12.6245 44.4092 12.3755 44.6533C12.1265 44.8975 11.8277 45.0195 11.4791 45.0195ZM46.763 25.6836C46.5637 26.0742 46.3728 26.3509 46.1902 26.5137C46.0242 26.6602 45.8997 26.7334 45.8167 26.7334C45.4681 26.7334 45.1693 26.8555 44.9203 27.0996C44.6713 27.3438 44.5468 27.6367 44.5468 27.9785C44.5468 28.3203 44.6713 28.6133 44.9203 28.8574C45.1693 29.1016 45.4681 29.2236 45.8167 29.2236C45.8665 29.2236 45.9163 29.2318 45.9661 29.248C46.0159 29.2643 46.0657 29.3213 46.1155 29.4189C46.1985 29.5654 46.2649 29.7607 46.3147 30.0049C46.3645 30.249 46.3894 30.5176 46.3894 30.8105C46.3894 31.3802 46.3147 31.9743 46.1653 32.5928C46.0159 33.2113 45.8084 33.7728 45.5428 34.2773C45.2938 34.7819 45.0531 35.14 44.8207 35.3516C44.5883 35.5469 44.414 35.6445 44.2978 35.6445C43.9492 35.6445 43.6504 35.7666 43.4014 36.0107C43.1524 36.2549 43.0279 36.5479 43.0279 36.8896C43.0279 37.1012 43.0777 37.3047 43.1773 37.5C43.2935 37.679 43.4429 37.8255 43.6255 37.9395C43.6587 38.3301 43.5757 38.973 43.3765 39.8682C43.1773 40.7471 42.8287 41.5365 42.3307 42.2363C42.1481 42.4967 41.9655 42.7002 41.7829 42.8467C41.6003 42.9932 41.4343 43.0664 41.2849 43.0664C40.9197 43.0664 40.6126 43.1885 40.3635 43.4326C40.1145 43.6768 39.99 43.9697 39.99 44.3115C39.99 45.402 39.4837 46.2077 38.4711 46.7285C37.4585 47.2493 36.3712 47.5098 35.2092 47.5098C33.6155 47.5098 32.2792 47.4609 31.2002 47.3633C30.1212 47.2493 29.1999 47.1029 28.4363 46.9238C27.6892 46.7285 27.0501 46.5088 26.5189 46.2646C25.9877 46.0205 25.4648 45.7601 24.9502 45.4834C24.4522 45.223 23.9293 44.9626 23.3815 44.7021C22.8337 44.4417 22.1863 44.1895 21.4392 43.9453C20.7088 43.6849 19.8456 43.4489 18.8496 43.2373C17.8536 43.0094 16.6667 42.8141 15.2888 42.6514V22.168C16.6335 21.7448 17.9615 21.2402 19.2729 20.6543C20.5843 20.0684 21.8626 19.4255 23.1076 18.7256C24.3692 18.0094 25.5893 17.2363 26.7679 16.4062C27.9465 15.5599 29.0671 14.6729 30.1295 13.7451C31.1421 12.8499 32.0634 11.9385 32.8934 11.0107C33.74 10.083 34.4788 9.15527 35.1096 8.22754C35.757 7.28353 36.2965 6.34766 36.7281 5.41992C37.1763 4.49219 37.5166 3.58073 37.749 2.68555C38.0976 2.7832 38.4462 2.9541 38.7948 3.19824C39.16 3.44238 39.4754 3.78418 39.741 4.22363C39.9402 4.59798 40.1062 5.12695 40.239 5.81055C40.3718 6.47786 40.3386 7.36491 40.1394 8.47168C39.9402 9.57845 39.5169 10.9212 38.8695 12.5C38.2221 14.0788 37.2427 15.9505 35.9313 18.1152C35.8151 18.3105 35.7487 18.5221 35.7321 18.75C35.7321 18.9779 35.7902 19.1895 35.9064 19.3848C36.0226 19.5801 36.1803 19.7347 36.3795 19.8486C36.5787 19.9626 36.7945 20.0195 37.0269 20.0195H45.8914C46.1404 20.0195 46.3479 20.0684 46.5139 20.166C46.6965 20.2474 46.8543 20.3939 46.9871 20.6055C47.1365 20.8333 47.2527 21.1263 47.3357 21.4844C47.4187 21.8262 47.4602 22.2087 47.4602 22.6318C47.4602 23.1689 47.3938 23.7061 47.261 24.2432C47.1448 24.7803 46.9788 25.2604 46.763 25.6836Z" fill="#64A862"/>
</svg>