<?xml version="1.0" encoding="UTF-8"?>
<svg width="50" height="50" viewBox="0 0 50 50" fill="none" xmlns="http://www.w3.org/2000/svg">
    <rect width="50" height="50" fill="white"/>
    <path d="M32.5725 20.5052H18.6855V17.9895H32.5725C32.9178 17.9895 33.2138 17.8674 33.4604 17.6232C33.7071 17.3789 33.8304 17.0858 33.8304 16.7439C33.8304 16.402 33.7071 16.1089 33.4604 15.8646C33.2138 15.6204 32.9178 15.4983 32.5725 15.4983H26.258V14.2526C26.258 13.8944 26.1346 13.5932 25.888 13.3489C25.6413 13.1047 25.3453 12.9826 25 12.9826C24.6547 12.9826 24.3587 13.1047 24.112 13.3489C23.8654 13.5932 23.742 13.8944 23.742 14.2526V15.4983H17.4275C17.0658 15.4983 16.7616 15.6204 16.5149 15.8646C16.2682 16.1089 16.1449 16.402 16.1449 16.7439V21.7509C16.1449 22.0928 16.2682 22.3859 16.5149 22.6301C16.7616 22.8744 17.0658 22.9965 17.4275 22.9965H31.3145V25.4878H17.4275C17.0658 25.4878 16.7616 25.6099 16.5149 25.8542C16.2682 26.0984 16.1449 26.3996 16.1449 26.7579C16.1449 27.0998 16.2682 27.3929 16.5149 27.6371C16.7616 27.8814 17.0658 28.0035 17.4275 28.0035H23.742V29.2491C23.742 29.5911 23.8654 29.8842 24.112 30.1284C24.3587 30.3726 24.6547 30.4948 25 30.4948C25.3453 30.4948 25.6413 30.3726 25.888 30.1284C26.1346 29.8842 26.258 29.5911 26.258 29.2491V28.0035H32.5725C32.9178 28.0035 33.2138 27.8814 33.4604 27.6371C33.7071 27.3929 33.8304 27.0998 33.8304 26.7579V21.7509C33.8304 21.4089 33.7071 21.1158 33.4604 20.8716C33.2138 20.6274 32.9178 20.5052 32.5725 20.5052ZM41.6742 11.8102C40.556 11.1914 39.3474 10.646 38.0483 10.1738C36.7657 9.70156 35.4173 9.30263 34.0031 8.97697C32.6053 8.65131 31.1418 8.40707 29.6125 8.24424C28.0997 8.08141 26.5622 8 25 8C23.4214 8 21.8756 8.08141 20.3628 8.24424C18.8499 8.40707 17.3864 8.65131 15.9723 8.97697C14.5581 9.30263 13.2014 9.70156 11.9024 10.1738C10.6197 10.646 9.41932 11.1914 8.30113 11.8102C7.13361 12.4615 6.08941 13.1698 5.16855 13.9351C4.26413 14.6841 3.49949 15.482 2.87461 16.3287C2.26619 17.1591 1.79753 18.0302 1.46865 18.9421C1.15622 19.8539 1 20.7902 1 21.7509V29.2491C1 30.2098 1.15622 31.1461 1.46865 32.0579C1.79753 32.9535 2.26619 33.8246 2.87461 34.6713C3.49949 35.518 4.26413 36.324 5.16855 37.0893C6.08941 37.8383 7.13361 38.5385 8.30113 39.1898C9.41932 39.8086 10.6197 40.354 11.9024 40.8262C13.2014 41.2984 14.5581 41.6974 15.9723 42.023C17.3864 42.3487 18.8499 42.5929 20.3628 42.7558C21.8756 42.9186 23.4214 43 25 43C26.5622 43 28.0997 42.9186 29.6125 42.7558C31.1418 42.5929 32.6053 42.3487 34.0031 42.023C35.4173 41.6974 36.7657 41.2984 38.0483 40.8262C39.3474 40.354 40.556 39.8086 41.6742 39.1898C42.8582 38.5385 43.9024 37.8383 44.8068 37.0893C45.7112 36.324 46.4758 35.518 47.1007 34.6713C47.7256 33.8246 48.1942 32.9535 48.5067 32.0579C48.8356 31.1461 49 30.2098 49 29.2491V21.7509C49 20.7902 48.8356 19.8539 48.5067 18.9421C48.1942 18.0302 47.7256 17.1591 47.1007 16.3287C46.4758 15.482 45.7112 14.6841 44.8068 13.9351C43.9024 13.1698 42.8582 12.4615 41.6742 11.8102ZM9.53443 14.0084C10.554 13.4385 11.6557 12.9337 12.8397 12.4941C14.0401 12.0544 15.2898 11.6881 16.5889 11.395C17.9044 11.1019 19.2693 10.8821 20.6835 10.7355C22.0976 10.5727 23.5365 10.4913 25 10.4913C26.4635 10.4913 27.8941 10.5727 29.2919 10.7355C30.7061 10.8821 32.0627 11.1019 33.3618 11.395C34.6773 11.6881 35.927 12.0544 37.111 12.4941C38.3114 12.9337 39.4296 13.4385 40.4656 14.0084C41.4358 14.5294 42.2909 15.0993 43.0308 15.7181C43.7708 16.3205 44.3957 16.9474 44.9054 17.5987C45.4152 18.2501 45.8016 18.9258 46.0648 19.626C46.3279 20.3261 46.4594 21.0344 46.4594 21.7509C46.4594 22.4673 46.3279 23.1756 46.0648 23.8758C45.8016 24.5597 45.4152 25.2354 44.9054 25.903C44.3957 26.5543 43.7708 27.1812 43.0308 27.7837C42.2909 28.3861 41.4358 28.956 40.4656 29.4934C39.4296 30.0633 38.3114 30.568 37.111 31.0077C35.927 31.431 34.6773 31.7974 33.3618 32.1068C32.0627 32.3999 30.7061 32.6278 29.2919 32.7906C27.8941 32.9372 26.4635 33.0105 25 33.0105C23.5365 33.0105 22.0976 32.9372 20.6835 32.7906C19.2693 32.6278 17.9044 32.3999 16.5889 32.1068C15.2898 31.7974 14.0401 31.431 12.8397 31.0077C11.6557 30.568 10.554 30.0633 9.53443 29.4934C8.56423 28.956 7.70093 28.3861 6.9445 27.7837C6.20452 27.1812 5.57965 26.5543 5.06989 25.903C4.56012 25.2354 4.17369 24.5597 3.91059 23.8758C3.64748 23.1756 3.51593 22.4673 3.51593 21.7509C3.51593 21.0344 3.64748 20.3261 3.91059 19.626C4.17369 18.9258 4.56012 18.2501 5.06989 17.5987C5.57965 16.9474 6.20452 16.3205 6.9445 15.7181C7.70093 15.0993 8.56423 14.5294 9.53443 14.0084ZM46.4594 29.2491C46.4594 29.9656 46.3279 30.6739 46.0648 31.374C45.8016 32.0742 45.4152 32.7499 44.9054 33.4013C44.3957 34.0526 43.7708 34.6876 43.0308 35.3063C42.2909 35.9088 41.4358 36.4706 40.4656 36.9916C39.4296 37.5615 38.3114 38.0663 37.111 38.5059C35.927 38.9456 34.6773 39.3119 33.3618 39.605C32.0627 39.8981 30.7061 40.1261 29.2919 40.2889C27.8941 40.4354 26.4635 40.5087 25 40.5087C23.5365 40.5087 22.0976 40.4354 20.6835 40.2889C19.2693 40.1261 17.9044 39.8981 16.5889 39.605C15.2898 39.3119 14.0401 38.9456 12.8397 38.5059C11.6557 38.0663 10.554 37.5615 9.53443 36.9916C8.56423 36.4706 7.70093 35.9088 6.9445 35.3063C6.20452 34.6876 5.57965 34.0526 5.06989 33.4013C4.56012 32.7499 4.17369 32.0742 3.91059 31.374C3.64748 30.6739 3.51593 29.9656 3.51593 29.2491V27.9546C4.12436 28.6548 4.82323 29.3143 5.61254 29.933C6.41829 30.5518 7.31449 31.1379 8.30113 31.6916C9.41932 32.294 10.6197 32.8395 11.9024 33.328C13.2014 33.8002 14.5581 34.1991 15.9723 34.5248C17.3864 34.8341 18.8499 35.0784 20.3628 35.2575C21.8756 35.4203 23.4214 35.5017 25 35.5017C26.5622 35.5017 28.0997 35.4203 29.6125 35.2575C31.1418 35.0784 32.6053 34.8341 34.0031 34.5248C35.4173 34.1991 36.7657 33.8002 38.0483 33.328C39.3474 32.8395 40.556 32.294 41.6742 31.6916C42.6773 31.1379 43.5735 30.5518 44.3628 29.933C45.1686 29.3143 45.8674 28.6548 46.4594 27.9546V29.2491Z" fill="#64A862"/>
</svg>